<svg width="74" height="25" viewBox="0 0 74 25" fill="none" xmlns="http://www.w3.org/2000/svg">
<path d="M3.84 5.33976C3.06 5.33976 2.43 5.10976 1.95 4.64976C1.47 4.18976 1.23 3.59976 1.23 2.87976C1.23 2.03976 1.49 1.34976 2.01 0.809758C2.55 0.269757 3.27 -0.000244141 4.17 -0.000244141C5.07 -0.000244141 5.76 0.229756 6.24 0.689758C6.72 1.14976 6.96 1.73976 6.96 2.45976C6.96 3.31976 6.69 4.01976 6.15 4.55976C5.61 5.07976 4.85 5.33976 3.87 5.33976H3.84ZM2.01 11.0698L0 10.4998V8.24976L6 7.52976H6.06L6.99 8.15976V22.3498L8.79 22.6198V24.5998H0.15V22.6198L2.01 22.3498V11.0698ZM12.8173 24.7918C12.2733 24.7918 11.7933 24.5998 11.3773 24.2158C10.9773 23.8318 10.7773 23.3598 10.7773 22.7998C10.7773 22.1598 11.0093 21.6398 11.4733 21.2398C11.9373 20.8238 12.5133 20.6158 13.2013 20.6158C13.8253 20.6158 14.3293 20.8158 14.7133 21.2158C15.0973 21.6158 15.2893 22.0878 15.2893 22.6318C15.2893 23.3038 15.0653 23.8318 14.6173 24.2158C14.1693 24.5998 13.5693 24.7918 12.8173 24.7918ZM17.2705 18.0238C17.2705 16.5998 17.5585 15.3518 18.1345 14.2798C18.7105 13.2078 19.5185 12.3838 20.5585 11.8078C21.5985 11.2158 22.7985 10.9198 24.1585 10.9198C24.8305 10.9198 25.4065 10.9678 25.8865 11.0638C26.3825 11.1438 26.8865 11.2638 27.3985 11.4238C27.8625 11.5518 28.1505 11.6238 28.2625 11.6398L28.0945 15.9838H25.6705L25.0465 13.2238C24.9985 13.0158 24.8625 12.8718 24.6385 12.7918C24.4305 12.6958 24.1745 12.6478 23.8705 12.6478C23.1185 12.6478 22.5265 13.0158 22.0945 13.7518C21.6785 14.4878 21.4705 15.7118 21.4705 17.4238C21.4705 19.0558 21.7345 20.3118 22.2625 21.1918C22.8065 22.0558 23.5345 22.4878 24.4465 22.4878C25.6305 22.4878 26.7185 22.1838 27.7105 21.5758L28.3585 22.9918C27.9745 23.4238 27.3425 23.8478 26.4625 24.2638C25.5825 24.6638 24.6065 24.8638 23.5345 24.8638C21.4385 24.8638 19.8705 24.2478 18.8305 23.0158C17.7905 21.7678 17.2705 20.1038 17.2705 18.0238ZM31.105 7.27176L29.425 6.95976V5.49576L34.225 4.91976H34.297L34.993 5.42376V22.7998L36.553 23.0158V24.5998H29.569V23.0158L31.105 22.7998V7.27176ZM40.795 9.19176C40.171 9.19176 39.667 9.00776 39.283 8.63976C38.899 8.27176 38.707 7.79976 38.707 7.22376C38.707 6.55176 38.915 5.99976 39.331 5.56776C39.763 5.13576 40.339 4.91976 41.059 4.91976C41.779 4.91976 42.331 5.10376 42.715 5.47176C43.099 5.83976 43.291 6.31176 43.291 6.88776C43.291 7.57576 43.075 8.13576 42.643 8.56776C42.211 8.98376 41.603 9.19176 40.819 9.19176H40.795ZM39.331 13.7758L37.723 13.3198V11.5198L42.523 10.9438H42.571L43.315 11.4478V22.7998L44.755 23.0158V24.5998H37.843V23.0158L39.331 22.7998V13.7758ZM45.9177 18.0238C45.9177 16.5998 46.2057 15.3518 46.7817 14.2798C47.3577 13.2078 48.1657 12.3838 49.2057 11.8078C50.2457 11.2158 51.4457 10.9198 52.8057 10.9198C53.4777 10.9198 54.0537 10.9678 54.5337 11.0638C55.0297 11.1438 55.5337 11.2638 56.0457 11.4238C56.5097 11.5518 56.7977 11.6238 56.9097 11.6398L56.7417 15.9838H54.3177L53.6937 13.2238C53.6457 13.0158 53.5097 12.8718 53.2857 12.7918C53.0777 12.6958 52.8217 12.6478 52.5177 12.6478C51.7657 12.6478 51.1737 13.0158 50.7417 13.7518C50.3257 14.4878 50.1177 15.7118 50.1177 17.4238C50.1177 19.0558 50.3817 20.3118 50.9097 21.1918C51.4537 22.0558 52.1817 22.4878 53.0937 22.4878C54.2777 22.4878 55.3657 22.1838 56.3577 21.5758L57.0057 22.9918C56.6217 23.4238 55.9897 23.8478 55.1097 24.2638C54.2297 24.6638 53.2537 24.8638 52.1817 24.8638C50.0857 24.8638 48.5177 24.2478 47.4777 23.0158C46.4377 21.7678 45.9177 20.1038 45.9177 18.0238ZM59.5842 7.27176L57.9522 6.95976V5.49576L62.7282 4.91976H62.8002L63.4962 5.42376V16.6318L63.4242 17.8078L67.9362 13.0558L66.1602 12.7918V11.2798H72.6882V12.7918L70.7202 13.1038L68.1282 15.5758L72.0882 22.7998L73.3362 23.0158V24.5998H66.6642V23.0158L67.7442 22.7998L65.3682 18.0478L63.4242 20.0638L63.4722 21.2878V22.7998L64.8642 23.0158V24.5998H58.2642V23.0158L59.5842 22.7998V7.27176Z" fill="white"/>
</svg>
