<svg width="74" height="25" viewBox="0 0 74 25" fill="none" xmlns="http://www.w3.org/2000/svg">
<path d="M3.861 5.36921C3.07673 5.36921 2.44329 5.13795 1.96066 4.67543C1.47804 4.21292 1.23673 3.61969 1.23673 2.89575C1.23673 2.05116 1.49815 1.35739 2.02099 0.814432C2.56394 0.271478 3.28788 0 4.1928 0C5.09773 0 5.7915 0.231258 6.27413 0.693776C6.75675 1.15629 6.99806 1.74952 6.99806 2.47346C6.99806 3.33816 6.72659 4.04199 6.18363 4.58494C5.64068 5.10779 4.87652 5.36921 3.89116 5.36921H3.861ZM2.02099 11.1305L0 10.5574V8.29512L6.03281 7.57118H6.09314L7.02823 8.20463V22.4722L8.83807 22.7437V24.7345H0.15082V22.7437L2.02099 22.4722V11.1305ZM12.8874 24.9276C12.3404 24.9276 11.8578 24.7345 11.4395 24.3484C11.0374 23.9623 10.8363 23.4878 10.8363 22.9247C10.8363 22.2812 11.0695 21.7584 11.5361 21.3562C12.0026 20.9379 12.5818 20.7288 13.2735 20.7288C13.9009 20.7288 14.4077 20.9298 14.7938 21.332C15.1799 21.7342 15.3729 22.2088 15.3729 22.7558C15.3729 23.4315 15.1477 23.9623 14.6973 24.3484C14.2468 24.7345 13.6435 24.9276 12.8874 24.9276ZM17.365 18.1226C17.365 16.6908 17.6545 15.436 18.2337 14.3581C18.8128 13.2802 19.6253 12.4517 20.671 11.8726C21.7166 11.2773 22.9232 10.9797 24.2906 10.9797C24.9663 10.9797 25.5455 11.028 26.0281 11.1245C26.5268 11.205 27.0336 11.3256 27.5484 11.4865C28.0149 11.6152 28.3045 11.6876 28.4171 11.7037L28.2482 16.0714H25.8109L25.1835 13.2963C25.1352 13.0872 24.9985 12.9424 24.7733 12.862C24.5641 12.7654 24.3067 12.7172 24.0011 12.7172C23.245 12.7172 22.6497 13.0872 22.2154 13.8272C21.7971 14.5672 21.5879 15.7979 21.5879 17.5193C21.5879 19.1602 21.8534 20.4231 22.3843 21.3079C22.9313 22.1766 23.6632 22.611 24.5802 22.611C25.7707 22.611 26.8646 22.3053 27.8621 21.694L28.5136 23.1178C28.1275 23.5521 27.4921 23.9784 26.6072 24.3967C25.7224 24.7989 24.7411 25 23.6632 25C21.5558 25 19.9792 24.3806 18.9335 23.1419C17.8878 21.8871 17.365 20.214 17.365 18.1226ZM31.2751 7.31177L29.5859 6.99807V5.52606L34.4122 4.94691H34.4846L35.1844 5.45367V22.9247L36.7529 23.1419V24.7345H29.7307V23.1419L31.2751 22.9247V7.31177ZM41.0181 9.24228C40.3907 9.24228 39.884 9.05727 39.4979 8.68726C39.1118 8.31724 38.9187 7.84266 38.9187 7.26351C38.9187 6.58784 39.1279 6.03282 39.5461 5.59845C39.9805 5.16409 40.5596 4.94691 41.2836 4.94691C42.0075 4.94691 42.5625 5.13192 42.9486 5.50193C43.3347 5.87194 43.5278 6.34652 43.5278 6.92567C43.5278 7.61744 43.3106 8.1805 42.8762 8.61486C42.4419 9.03314 41.8306 9.24228 41.0423 9.24228H41.0181ZM39.5461 13.8513L37.9293 13.3929V11.583L42.7556 11.0039H42.8038L43.5519 11.5106V22.9247L44.9998 23.1419V24.7345H38.05V23.1419L39.5461 22.9247V13.8513ZM46.1689 18.1226C46.1689 16.6908 46.4584 15.436 47.0376 14.3581C47.6167 13.2802 48.4291 12.4517 49.4748 11.8726C50.5205 11.2773 51.7271 10.9797 53.0945 10.9797C53.7702 10.9797 54.3493 11.028 54.832 11.1245C55.3307 11.205 55.8374 11.3256 56.3522 11.4865C56.8188 11.6152 57.1084 11.6876 57.221 11.7037L57.0521 16.0714H54.6148L53.9874 13.2963C53.9391 13.0872 53.8024 12.9424 53.5771 12.862C53.368 12.7654 53.1106 12.7172 52.8049 12.7172C52.0488 12.7172 51.4536 13.0872 51.0192 13.8272C50.601 14.5672 50.3918 15.7979 50.3918 17.5193C50.3918 19.1602 50.6573 20.4231 51.1882 21.3079C51.7351 22.1766 52.4671 22.611 53.3841 22.611C54.5746 22.611 55.6685 22.3053 56.6659 21.694L57.3175 23.1178C56.9314 23.5521 56.2959 23.9784 55.4111 24.3967C54.5263 24.7989 53.545 25 52.4671 25C50.3596 25 48.7831 24.3806 47.7374 23.1419C46.6917 21.8871 46.1689 20.214 46.1689 18.1226ZM59.9101 7.31177L58.2692 6.99807V5.52606L63.0713 4.94691H63.1437L63.8435 5.45367V16.723L63.7711 17.9054L68.3078 13.1274L66.5221 12.862V11.3417H73.0858V12.862L71.107 13.1757L68.5008 15.6612L72.4825 22.9247L73.7373 23.1419V24.7345H67.0288V23.1419L68.1147 22.9247L65.7257 18.1467L63.7711 20.1737L63.8194 21.4044V22.9247L65.219 23.1419V24.7345H58.5829V23.1419L59.9101 22.9247V7.31177Z" fill="white"/>
</svg>
