<svg width="20" height="20" viewBox="0 0 20 20" fill="none" xmlns="http://www.w3.org/2000/svg">
<path fill-rule="evenodd" clip-rule="evenodd" d="M6.41265 11.159C5.87535 11.159 5.43884 10.7225 5.43884 10.1852C5.43884 9.64952 5.87535 9.21301 6.41265 9.21301C6.94995 9.21301 7.38646 9.64952 7.38646 10.1852C7.38646 10.7225 6.94995 11.159 6.41265 11.159ZM10.1983 11.159C9.66105 11.159 9.22454 10.7225 9.22454 10.1852C9.22454 9.64952 9.66105 9.21301 10.1983 9.21301C10.7357 9.21301 11.1722 9.64952 11.1722 10.1852C11.1722 10.7225 10.7357 11.159 10.1983 11.159ZM13.0104 10.1852C13.0104 10.7225 13.4469 11.159 13.9842 11.159C14.5215 11.159 14.958 10.7225 14.958 10.1852C14.958 9.64952 14.5215 9.21301 13.9842 9.21301C13.4469 9.21301 13.0104 9.64952 13.0104 10.1852Z" fill="#828282"/>
<path fill-rule="evenodd" clip-rule="evenodd" d="M10.0166 1.66663C5.17496 1.66663 1.66663 5.62173 1.66663 10.0125C1.66663 11.4146 2.07496 12.8576 2.79163 14.1762C2.92496 14.3941 2.94163 14.6686 2.84996 14.9282L2.29163 16.7977C2.16663 17.2483 2.54996 17.5813 2.97496 17.4478L4.65829 16.9479C5.11663 16.7977 5.47496 16.9888 5.89996 17.2483C7.11663 17.9652 8.63329 18.3333 9.99996 18.3333C14.1333 18.3333 18.3333 15.1368 18.3333 9.98744C18.3333 5.54661 14.75 1.66663 10.0166 1.66663Z" stroke="#828282" stroke-width="1.5" stroke-linecap="round" stroke-linejoin="round"/>
</svg>
