<svg width="218" height="29" viewBox="0 0 218 29" fill="none" xmlns="http://www.w3.org/2000/svg">
<mask id="path-1-outside-1_205_51" maskUnits="userSpaceOnUse" x="-3" y="-2" width="223" height="33" fill="black">
<rect fill="white" x="-3" y="-2" width="223" height="33"/>
<path d="M23.3056 28H29.3456L36.9456 1.32H30.5456L25.9056 20.6L20.8656 1.32H16.4256L11.3456 20.6L6.66563 1.32H0.305625L7.94563 28H13.9856L18.6256 9.68L23.3056 28ZM43.6244 28H62.5044V23.08H49.3044V16.88H62.2244V12H49.3044V6.2H62.5044V1.32H43.6244V28ZM70.9447 28H87.9047V23H76.6247V1.32H70.9447V28ZM107.508 28.48C113.588 28.48 116.948 25.24 118.868 21.92L113.988 19.56C112.868 21.76 110.468 23.44 107.508 23.44C102.868 23.44 99.3484 19.72 99.3484 14.68C99.3484 9.64 102.868 5.92 107.508 5.92C110.468 5.92 112.868 7.64 113.988 9.8L118.868 7.4C116.988 4.08 113.588 0.879999 107.508 0.879999C99.7084 0.879999 93.5084 6.48 93.5084 14.68C93.5084 22.88 99.7084 28.48 107.508 28.48ZM124.969 14.68C124.969 22.72 130.849 28.48 138.889 28.48C146.969 28.48 152.849 22.72 152.849 14.68C152.849 6.64 146.969 0.879999 138.889 0.879999C130.849 0.879999 124.969 6.64 124.969 14.68ZM147.009 14.68C147.009 19.64 143.809 23.44 138.889 23.44C133.969 23.44 130.809 19.64 130.809 14.68C130.809 9.68 133.969 5.92 138.889 5.92C143.809 5.92 147.009 9.68 147.009 14.68ZM184.035 28H189.755V1.32H181.755L175.275 17.96L168.795 1.32H160.835V28H166.515V8.8L174.035 28H176.515L184.035 8.8V28ZM199.054 28H217.934V23.08H204.734V16.88H217.654V12H204.734V6.2H217.934V1.32H199.054V28Z"/>
</mask>
<path d="M23.3056 28L21.3679 28.495L21.7523 30H23.3056V28ZM29.3456 28V30H30.8555L31.2691 28.5479L29.3456 28ZM36.9456 1.32L38.8691 1.86792L39.5949 -0.680002H36.9456V1.32ZM30.5456 1.32V-0.680002H28.9699L28.6011 0.852031L30.5456 1.32ZM25.9056 20.6L23.9706 21.1058L27.8501 21.068L25.9056 20.6ZM20.8656 1.32L22.8006 0.814174L22.41 -0.680002H20.8656V1.32ZM16.4256 1.32V-0.680002H14.8843L14.4916 0.810419L16.4256 1.32ZM11.3456 20.6L9.40207 21.0718L13.2796 21.1096L11.3456 20.6ZM6.66563 1.32L8.60919 0.848221L8.23823 -0.680002H6.66563V1.32ZM0.305625 1.32V-0.680002H-2.34747L-1.6171 1.87058L0.305625 1.32ZM7.94563 28L6.0229 28.5506L6.43795 30H7.94563V28ZM13.9856 28V30H15.5422L15.9244 28.491L13.9856 28ZM18.6256 9.68L20.5634 9.18498L16.6868 9.18895L18.6256 9.68ZM23.3056 30H29.3456V26H23.3056V30ZM31.2691 28.5479L38.8691 1.86792L35.0221 0.772079L27.4221 27.4521L31.2691 28.5479ZM36.9456 -0.680002H30.5456V3.32H36.9456V-0.680002ZM28.6011 0.852031L23.9611 20.132L27.8501 21.068L32.4901 1.78796L28.6011 0.852031ZM27.8406 20.0942L22.8006 0.814174L18.9306 1.82582L23.9706 21.1058L27.8406 20.0942ZM20.8656 -0.680002H16.4256V3.32H20.8656V-0.680002ZM14.4916 0.810419L9.41163 20.0904L13.2796 21.1096L18.3596 1.82958L14.4916 0.810419ZM13.2892 20.1282L8.60919 0.848221L4.72207 1.79177L9.40207 21.0718L13.2892 20.1282ZM6.66563 -0.680002H0.305625V3.32H6.66563V-0.680002ZM-1.6171 1.87058L6.0229 28.5506L9.86835 27.4494L2.22835 0.769413L-1.6171 1.87058ZM7.94563 30H13.9856V26H7.94563V30ZM15.9244 28.491L20.5644 10.171L16.6868 9.18895L12.0468 27.509L15.9244 28.491ZM16.6879 10.175L21.3679 28.495L25.2434 27.505L20.5634 9.18498L16.6879 10.175ZM43.6244 28H41.6244V30H43.6244V28ZM62.5044 28V30H64.5044V28H62.5044ZM62.5044 23.08H64.5044V21.08H62.5044V23.08ZM49.3044 23.08H47.3044V25.08H49.3044V23.08ZM49.3044 16.88V14.88H47.3044V16.88H49.3044ZM62.2244 16.88V18.88H64.2244V16.88H62.2244ZM62.2244 12H64.2244V10H62.2244V12ZM49.3044 12H47.3044V14H49.3044V12ZM49.3044 6.2V4.2H47.3044V6.2H49.3044ZM62.5044 6.2V8.2H64.5044V6.2H62.5044ZM62.5044 1.32H64.5044V-0.680002H62.5044V1.32ZM43.6244 1.32V-0.680002H41.6244V1.32H43.6244ZM43.6244 30H62.5044V26H43.6244V30ZM64.5044 28V23.08H60.5044V28H64.5044ZM62.5044 21.08H49.3044V25.08H62.5044V21.08ZM51.3044 23.08V16.88H47.3044V23.08H51.3044ZM49.3044 18.88H62.2244V14.88H49.3044V18.88ZM64.2244 16.88V12H60.2244V16.88H64.2244ZM62.2244 10H49.3044V14H62.2244V10ZM51.3044 12V6.2H47.3044V12H51.3044ZM49.3044 8.2H62.5044V4.2H49.3044V8.2ZM64.5044 6.2V1.32H60.5044V6.2H64.5044ZM62.5044 -0.680002H43.6244V3.32H62.5044V-0.680002ZM41.6244 1.32V28H45.6244V1.32H41.6244ZM70.9447 28H68.9447V30H70.9447V28ZM87.9047 28V30H89.9047V28H87.9047ZM87.9047 23H89.9047V21H87.9047V23ZM76.6247 23H74.6247V25H76.6247V23ZM76.6247 1.32H78.6247V-0.680002H76.6247V1.32ZM70.9447 1.32V-0.680002H68.9447V1.32H70.9447ZM70.9447 30H87.9047V26H70.9447V30ZM89.9047 28V23H85.9047V28H89.9047ZM87.9047 21H76.6247V25H87.9047V21ZM78.6247 23V1.32H74.6247V23H78.6247ZM76.6247 -0.680002H70.9447V3.32H76.6247V-0.680002ZM68.9447 1.32V28H72.9447V1.32H68.9447ZM118.868 21.92L120.6 22.9213L121.678 21.0571L119.739 20.1195L118.868 21.92ZM113.988 19.56L114.859 17.7595L113.095 16.9064L112.206 18.6526L113.988 19.56ZM113.988 9.8L112.213 10.7206L113.114 12.4588L114.871 11.5947L113.988 9.8ZM118.868 7.4L119.751 9.1947L121.653 8.25916L120.609 6.4145L118.868 7.4ZM107.508 30.48C114.489 30.48 118.427 26.679 120.6 22.9213L117.137 20.9187C115.47 23.801 112.688 26.48 107.508 26.48V30.48ZM119.739 20.1195L114.859 17.7595L113.118 21.3605L117.998 23.7205L119.739 20.1195ZM112.206 18.6526C111.414 20.2088 109.687 21.44 107.508 21.44V25.44C111.25 25.44 114.323 23.3112 115.771 20.4674L112.206 18.6526ZM107.508 21.44C104.096 21.44 101.348 18.7423 101.348 14.68H97.3484C97.3484 20.6977 101.641 25.44 107.508 25.44V21.44ZM101.348 14.68C101.348 10.6177 104.096 7.92 107.508 7.92V3.92C101.641 3.92 97.3484 8.6623 97.3484 14.68H101.348ZM107.508 7.92C109.671 7.92 111.413 9.17766 112.213 10.7206L115.764 8.87937C114.324 6.10234 111.266 3.92 107.508 3.92V7.92ZM114.871 11.5947L119.751 9.1947L117.986 5.6053L113.106 8.0053L114.871 11.5947ZM120.609 6.4145C118.461 2.62092 114.469 -1.12 107.508 -1.12V2.88C112.707 2.88 115.516 5.53908 117.128 8.38549L120.609 6.4145ZM107.508 -1.12C98.6808 -1.12 91.5084 5.30003 91.5084 14.68H95.5084C95.5084 7.65997 100.736 2.88 107.508 2.88V-1.12ZM91.5084 14.68C91.5084 24.06 98.6808 30.48 107.508 30.48V26.48C100.736 26.48 95.5084 21.7 95.5084 14.68H91.5084ZM122.969 14.68C122.969 23.8475 129.768 30.48 138.889 30.48V26.48C131.931 26.48 126.969 21.5925 126.969 14.68H122.969ZM138.889 30.48C148.047 30.48 154.849 23.8513 154.849 14.68H150.849C150.849 21.5887 145.892 26.48 138.889 26.48V30.48ZM154.849 14.68C154.849 5.50872 148.047 -1.12 138.889 -1.12V2.88C145.892 2.88 150.849 7.77127 150.849 14.68H154.849ZM138.889 -1.12C129.768 -1.12 122.969 5.5125 122.969 14.68H126.969C126.969 7.76749 131.931 2.88 138.889 2.88V-1.12ZM145.009 14.68C145.009 16.734 144.349 18.4263 143.309 19.581C142.285 20.7165 140.802 21.44 138.889 21.44V25.44C141.897 25.44 144.473 24.2635 146.28 22.259C148.069 20.2737 149.009 17.586 149.009 14.68H145.009ZM138.889 21.44C136.978 21.44 135.507 20.7177 134.495 19.5863C133.463 18.4338 132.809 16.7406 132.809 14.68H128.809C128.809 17.5794 129.735 20.2662 131.514 22.2537C133.311 24.2623 135.88 25.44 138.889 25.44V21.44ZM132.809 14.68C132.809 12.5964 133.465 10.9056 134.493 9.76109C135.502 8.63719 136.972 7.92 138.889 7.92V3.92C135.887 3.92 133.317 5.08281 131.516 7.08891C129.734 9.07436 128.809 11.7636 128.809 14.68H132.809ZM138.889 7.92C140.808 7.92 142.291 8.63839 143.311 9.76633C144.348 10.9131 145.009 12.603 145.009 14.68H149.009C149.009 11.757 148.071 9.06688 146.278 7.08367C144.468 5.08161 141.89 3.92 138.889 3.92V7.92ZM184.035 28H182.035V30H184.035V28ZM189.755 28V30H191.755V28H189.755ZM189.755 1.32H191.755V-0.680002H189.755V1.32ZM181.755 1.32V-0.680002H180.388L179.892 0.594241L181.755 1.32ZM175.275 17.96L173.412 18.6858L175.275 23.4715L177.139 18.6858L175.275 17.96ZM168.795 1.32L170.659 0.594241L170.163 -0.680002H168.795V1.32ZM160.835 1.32V-0.680002H158.835V1.32H160.835ZM160.835 28H158.835V30H160.835V28ZM166.515 28V30H168.515V28H166.515ZM166.515 8.8L168.378 8.07062L164.515 8.8H166.515ZM174.035 28L172.173 28.7294L172.671 30H174.035V28ZM176.515 28V30H177.88L178.378 28.7294L176.515 28ZM184.035 8.8H186.035L182.173 8.07062L184.035 8.8ZM184.035 30H189.755V26H184.035V30ZM191.755 28V1.32H187.755V28H191.755ZM189.755 -0.680002H181.755V3.32H189.755V-0.680002ZM179.892 0.594241L173.412 17.2342L177.139 18.6858L183.619 2.04576L179.892 0.594241ZM177.139 17.2342L170.659 0.594241L166.932 2.04575L173.412 18.6858L177.139 17.2342ZM168.795 -0.680002H160.835V3.32H168.795V-0.680002ZM158.835 1.32V28H162.835V1.32H158.835ZM160.835 30H166.515V26H160.835V30ZM168.515 28V8.8H164.515V28H168.515ZM164.653 9.52938L172.173 28.7294L175.898 27.2706L168.378 8.07062L164.653 9.52938ZM174.035 30H176.515V26H174.035V30ZM178.378 28.7294L185.898 9.52938L182.173 8.07062L174.653 27.2706L178.378 28.7294ZM182.035 8.8V28H186.035V8.8H182.035ZM199.054 28H197.054V30H199.054V28ZM217.934 28V30H219.934V28H217.934ZM217.934 23.08H219.934V21.08H217.934V23.08ZM204.734 23.08H202.734V25.08H204.734V23.08ZM204.734 16.88V14.88H202.734V16.88H204.734ZM217.654 16.88V18.88H219.654V16.88H217.654ZM217.654 12H219.654V10H217.654V12ZM204.734 12H202.734V14H204.734V12ZM204.734 6.2V4.2H202.734V6.2H204.734ZM217.934 6.2V8.2H219.934V6.2H217.934ZM217.934 1.32H219.934V-0.680002H217.934V1.32ZM199.054 1.32V-0.680002H197.054V1.32H199.054ZM199.054 30H217.934V26H199.054V30ZM219.934 28V23.08H215.934V28H219.934ZM217.934 21.08H204.734V25.08H217.934V21.08ZM206.734 23.08V16.88H202.734V23.08H206.734ZM204.734 18.88H217.654V14.88H204.734V18.88ZM219.654 16.88V12H215.654V16.88H219.654ZM217.654 10H204.734V14H217.654V10ZM206.734 12V6.2H202.734V12H206.734ZM204.734 8.2H217.934V4.2H204.734V8.2ZM219.934 6.2V1.32H215.934V6.2H219.934ZM217.934 -0.680002H199.054V3.32H217.934V-0.680002ZM197.054 1.32V28H201.054V1.32H197.054Z" fill="white" mask="url(#path-1-outside-1_205_51)"/>
</svg>
